<?xml version="1.0" encoding="UTF-8" standalone="no"?>
<svg
   xmlns:dc="http://purl.org/dc/elements/1.1/"
   xmlns:cc="http://creativecommons.org/ns#"
   xmlns:rdf="http://www.w3.org/1999/02/22-rdf-syntax-ns#"
   xmlns:svg="http://www.w3.org/2000/svg"
   xmlns="http://www.w3.org/2000/svg"
   xmlns:xlink="http://www.w3.org/1999/xlink"
   id="svg50"
   version="1.1"
   fill="none"
   viewBox="0 0 1500 500"
   height="500"
   width="1500">
  <metadata
     id="metadata54">
    <rdf:RDF>
      <cc:Work
         rdf:about="">
        <dc:format>image/svg+xml</dc:format>
        <dc:type
           rdf:resource="http://purl.org/dc/dcmitype/StillImage" />
        <dc:title></dc:title>
      </cc:Work>
    </rdf:RDF>
  </metadata>
  <g
     id="g36"
     clip-path="url(#clip0)">
    <rect
       id="rect2"
       fill="#1E1E1E"
       height="500"
       width="1500" />
    <rect
       id="rect4"
       fill="#1E1E1E"
       height="500"
       width="1500" />
    <rect
       id="rect6"
       fill="#DF2525"
       transform="rotate(-37.4908 286 621.501)"
       height="759.948"
       width="1614.27"
       y="621.501"
       x="286" />
    <circle
       fill="white"
       id="circle8"
       r="183"
       cy="225"
       cx="750" />
    <path
       id="path10"
       fill="white"
       d="M599.94 435.08L602.532 443.54C602.652 443.9 602.748 444.296 602.82 444.728C602.916 445.136 603 445.532 603.072 445.916C603.144 446.348 603.204 446.78 603.252 447.212H603.54C603.588 446.78 603.648 446.348 603.72 445.916C603.768 445.532 603.828 445.136 603.9 444.728C603.996 444.296 604.104 443.9 604.224 443.54L606.636 435.08H612.144V461H608.004V444.188C608.004 443.54 608.028 442.868 608.076 442.172C608.148 441.452 608.22 440.804 608.292 440.228C608.364 439.532 608.448 438.86 608.544 438.212H608.112C607.968 438.836 607.824 439.46 607.68 440.084C607.56 440.636 607.416 441.212 607.248 441.812C607.104 442.412 606.96 442.952 606.816 443.432L605.052 449.804H601.596L599.724 443.432C599.556 442.904 599.388 442.34 599.22 441.74C599.076 441.14 598.944 440.576 598.824 440.048C598.68 439.424 598.548 438.812 598.428 438.212H598.032C598.128 438.86 598.224 439.532 598.32 440.228C598.368 440.804 598.416 441.452 598.464 442.172C598.536 442.868 598.572 443.54 598.572 444.188V461H594.468V435.08H599.94ZM615.802 455.456C615.802 454.472 615.982 453.596 616.342 452.828C616.702 452.036 617.218 451.364 617.89 450.812C618.562 450.26 619.366 449.84 620.302 449.552C621.262 449.24 622.33 449.084 623.506 449.084H628.51V447.392C628.51 446.48 628.162 445.76 627.466 445.232C626.794 444.68 625.846 444.404 624.622 444.404C623.638 444.404 622.798 444.584 622.102 444.944C621.43 445.304 620.998 445.796 620.806 446.42H616.414C616.558 445.556 616.858 444.788 617.314 444.116C617.77 443.42 618.358 442.832 619.078 442.352C619.798 441.872 620.626 441.5 621.562 441.236C622.522 440.972 623.554 440.84 624.658 440.84C625.93 440.84 627.082 440.996 628.114 441.308C629.146 441.596 630.022 442.028 630.742 442.604C631.462 443.156 632.014 443.84 632.398 444.656C632.806 445.448 633.01 446.336 633.01 447.32V461H628.762V457.112H628.438C628.222 458.408 627.55 459.44 626.422 460.208C625.294 460.976 623.878 461.36 622.174 461.36C620.23 461.36 618.682 460.832 617.53 459.776C616.378 458.696 615.802 457.256 615.802 455.456ZM620.302 454.916C620.302 455.828 620.602 456.548 621.202 457.076C621.826 457.58 622.69 457.832 623.794 457.832C625.162 457.832 626.29 457.508 627.178 456.86C628.066 456.188 628.51 455.348 628.51 454.34V452.036H623.542C622.534 452.036 621.742 452.288 621.166 452.792C620.59 453.296 620.302 454.004 620.302 454.916ZM642.968 435.08V449.012H646.172L651.104 441.2H656.144L650.024 450.848L656.252 461H651.104L646.136 452.864H642.968V461H638.468V435.08H642.968ZM660.234 456.896H667.326V445.268H661.134V441.2H671.61V456.896H677.37V461H660.234V456.896ZM666.246 435.872C666.246 435.152 666.474 434.576 666.93 434.144C667.386 433.688 667.998 433.46 668.766 433.46H669.486C670.254 433.46 670.878 433.688 671.358 434.144C671.838 434.576 672.078 435.152 672.078 435.872C672.078 436.592 671.838 437.168 671.358 437.6C670.878 438.008 670.254 438.212 669.486 438.212H668.766C667.998 438.212 667.386 437.996 666.93 437.564C666.474 437.132 666.246 436.568 666.246 435.872ZM681.424 441.2H685.672V444.62H685.996C686.236 443.396 686.812 442.46 687.724 441.812C688.636 441.164 689.812 440.84 691.252 440.84C693.292 440.84 694.888 441.5 696.04 442.82C697.192 444.14 697.768 445.892 697.768 448.076V461H693.268V448.616C693.268 447.392 692.944 446.444 692.296 445.772C691.648 445.076 690.76 444.728 689.632 444.728C688.48 444.728 687.568 445.088 686.896 445.808C686.248 446.504 685.924 447.464 685.924 448.688V461H681.424V441.2ZM702.506 448.508C702.506 447.356 702.662 446.312 702.974 445.376C703.31 444.416 703.766 443.6 704.342 442.928C704.942 442.256 705.662 441.74 706.502 441.38C707.366 441.02 708.314 440.84 709.346 440.84C710.834 440.84 712.058 441.2 713.018 441.92C714.002 442.616 714.602 443.576 714.818 444.8H715.07V441.2H719.39V459.884C719.39 460.988 719.198 461.984 718.814 462.872C718.43 463.76 717.878 464.516 717.158 465.14C716.438 465.788 715.574 466.28 714.566 466.616C713.558 466.952 712.418 467.12 711.146 467.12H705.854V463.376H711.146C712.298 463.376 713.21 463.064 713.882 462.44C714.554 461.816 714.89 460.964 714.89 459.884V459.38L715.07 455.636H714.818C714.578 456.86 713.978 457.832 713.018 458.552C712.058 459.248 710.834 459.596 709.346 459.596C708.314 459.596 707.378 459.416 706.538 459.056C705.698 458.696 704.978 458.18 704.378 457.508C703.778 456.836 703.31 456.032 702.974 455.096C702.662 454.136 702.506 453.08 702.506 451.928V448.508ZM707.042 451.82C707.042 453.044 707.39 454.004 708.086 454.7C708.782 455.372 709.742 455.708 710.966 455.708C712.19 455.708 713.15 455.36 713.846 454.664C714.542 453.968 714.89 453.02 714.89 451.82V448.616C714.89 447.416 714.542 446.468 713.846 445.772C713.15 445.076 712.19 444.728 710.966 444.728C709.742 444.728 708.782 445.076 708.086 445.772C707.39 446.444 707.042 447.392 707.042 448.616V451.82ZM745.318 455.456C745.318 454.472 745.498 453.596 745.858 452.828C746.218 452.036 746.734 451.364 747.406 450.812C748.078 450.26 748.882 449.84 749.818 449.552C750.778 449.24 751.846 449.084 753.022 449.084H758.026V447.392C758.026 446.48 757.678 445.76 756.982 445.232C756.31 444.68 755.362 444.404 754.138 444.404C753.154 444.404 752.314 444.584 751.618 444.944C750.946 445.304 750.514 445.796 750.322 446.42H745.93C746.074 445.556 746.374 444.788 746.83 444.116C747.286 443.42 747.874 442.832 748.594 442.352C749.314 441.872 750.142 441.5 751.078 441.236C752.038 440.972 753.07 440.84 754.174 440.84C755.446 440.84 756.598 440.996 757.63 441.308C758.662 441.596 759.538 442.028 760.258 442.604C760.978 443.156 761.53 443.84 761.914 444.656C762.322 445.448 762.526 446.336 762.526 447.32V461H758.278V457.112H757.954C757.738 458.408 757.066 459.44 755.938 460.208C754.81 460.976 753.394 461.36 751.69 461.36C749.746 461.36 748.198 460.832 747.046 459.776C745.894 458.696 745.318 457.256 745.318 455.456ZM749.818 454.916C749.818 455.828 750.118 456.548 750.718 457.076C751.342 457.58 752.206 457.832 753.31 457.832C754.678 457.832 755.806 457.508 756.694 456.86C757.582 456.188 758.026 455.348 758.026 454.34V452.036H753.058C752.05 452.036 751.258 452.288 750.682 452.792C750.106 453.296 749.818 454.004 749.818 454.916ZM765.824 441.2H769.64L771.152 453.512C771.2 453.944 771.236 454.448 771.26 455.024C771.308 455.6 771.344 456.152 771.368 456.68C771.392 457.304 771.404 457.928 771.404 458.552H771.908C771.956 457.928 772.004 457.304 772.052 456.68C772.1 456.152 772.148 455.6 772.196 455.024C772.268 454.448 772.34 453.944 772.412 453.512L774.356 441.2H777.668L779.612 453.512C779.684 453.968 779.744 454.484 779.792 455.06C779.84 455.636 779.888 456.188 779.936 456.716C779.96 457.316 779.984 457.928 780.008 458.552H780.512C780.536 457.928 780.572 457.316 780.62 456.716C780.668 456.188 780.704 455.636 780.728 455.06C780.776 454.484 780.824 453.968 780.872 453.512L782.42 441.2H786.128L783.428 461H778.28L776.444 448.22C776.396 447.86 776.36 447.44 776.336 446.96C776.312 446.456 776.288 445.988 776.264 445.556C776.24 445.028 776.228 444.5 776.228 443.972H775.796C775.796 444.5 775.784 445.028 775.76 445.556C775.736 445.988 775.712 446.456 775.688 446.96C775.664 447.44 775.616 447.86 775.544 448.22L773.6 461H768.488L765.824 441.2ZM788.958 448.652C788.958 447.452 789.162 446.372 789.57 445.412C789.978 444.452 790.554 443.636 791.298 442.964C792.042 442.292 792.942 441.776 793.998 441.416C795.078 441.032 796.266 440.84 797.562 440.84C798.858 440.84 800.022 441.032 801.054 441.416C802.11 441.776 803.01 442.304 803.754 443C804.522 443.672 805.11 444.5 805.518 445.484C805.926 446.444 806.13 447.512 806.13 448.688V452.216H793.314V453.512C793.314 454.856 793.698 455.912 794.466 456.68C795.234 457.424 796.266 457.796 797.562 457.796C798.546 457.796 799.386 457.64 800.082 457.328C800.778 456.992 801.258 456.548 801.522 455.996H805.986C805.77 456.812 805.41 457.556 804.906 458.228C804.402 458.876 803.778 459.44 803.034 459.92C802.29 460.376 801.45 460.736 800.514 461C799.602 461.24 798.618 461.36 797.562 461.36C796.266 461.36 795.09 461.18 794.034 460.82C792.978 460.436 792.066 459.908 791.298 459.236C790.554 458.54 789.978 457.712 789.57 456.752C789.162 455.768 788.958 454.688 788.958 453.512V448.652ZM797.562 444.404C796.266 444.404 795.234 444.788 794.466 445.556C793.698 446.324 793.314 447.356 793.314 448.652V449.228H801.774V448.688C801.774 447.368 801.402 446.324 800.658 445.556C799.914 444.788 798.882 444.404 797.562 444.404ZM810.436 455.924H815.044C815.212 456.548 815.596 457.04 816.196 457.4C816.796 457.736 817.528 457.904 818.392 457.904H819.868C820.972 457.904 821.824 457.688 822.424 457.256C823.048 456.824 823.36 456.224 823.36 455.456C823.36 454.088 822.34 453.284 820.3 453.044L817.492 452.684C815.236 452.42 813.568 451.808 812.488 450.848C811.408 449.864 810.868 448.484 810.868 446.708C810.868 444.836 811.528 443.396 812.848 442.388C814.168 441.356 816.04 440.84 818.464 440.84H819.94C822.124 440.84 823.876 441.308 825.196 442.244C826.54 443.156 827.332 444.44 827.572 446.096H822.964C822.844 445.544 822.508 445.112 821.956 444.8C821.428 444.464 820.756 444.296 819.94 444.296H818.464C817.456 444.296 816.676 444.488 816.124 444.872C815.572 445.232 815.296 445.796 815.296 446.564C815.296 447.812 816.184 448.556 817.96 448.796L820.876 449.156C823.228 449.444 824.968 450.092 826.096 451.1C827.224 452.084 827.788 453.488 827.788 455.312C827.788 457.256 827.104 458.756 825.736 459.812C824.368 460.844 822.412 461.36 819.868 461.36H818.392C816.088 461.36 814.24 460.892 812.848 459.956C811.456 458.996 810.652 457.652 810.436 455.924ZM840.734 461.36C839.438 461.36 838.25 461.168 837.17 460.784C836.114 460.4 835.214 459.872 834.47 459.2C833.726 458.504 833.15 457.676 832.742 456.716C832.334 455.756 832.13 454.688 832.13 453.512V448.652C832.13 447.476 832.334 446.408 832.742 445.448C833.15 444.488 833.726 443.672 834.47 443C835.214 442.304 836.114 441.776 837.17 441.416C838.25 441.032 839.438 440.84 840.734 440.84C842.03 440.84 843.206 441.032 844.262 441.416C845.342 441.776 846.254 442.304 846.998 443C847.742 443.672 848.318 444.488 848.726 445.448C849.134 446.408 849.338 447.476 849.338 448.652V453.512C849.338 454.688 849.134 455.768 848.726 456.752C848.318 457.712 847.742 458.54 846.998 459.236C846.254 459.908 845.354 460.436 844.298 460.82C843.242 461.18 842.054 461.36 840.734 461.36ZM836.63 453.512C836.63 454.712 836.99 455.66 837.71 456.356C838.454 457.052 839.462 457.4 840.734 457.4C842.006 457.4 843.002 457.052 843.722 456.356C844.466 455.66 844.838 454.712 844.838 453.512V448.652C844.838 447.452 844.466 446.504 843.722 445.808C843.002 445.112 842.006 444.764 840.734 444.764C839.462 444.764 838.454 445.112 837.71 445.808C836.99 446.504 836.63 447.452 836.63 448.652V453.512ZM856.92 441.2V444.08H857.244C857.316 443.072 857.64 442.28 858.216 441.704C858.792 441.128 859.572 440.84 860.556 440.84C861.468 440.84 862.176 441.116 862.68 441.668C863.184 442.22 863.544 443.024 863.76 444.08H864.048C864.12 443.072 864.444 442.28 865.02 441.704C865.596 441.128 866.376 440.84 867.36 440.84C868.56 440.84 869.532 441.284 870.276 442.172C871.02 443.06 871.392 444.296 871.392 445.88V461H867.396V446.24C867.396 444.752 866.832 444.008 865.704 444.008C864.528 444.008 863.94 444.776 863.94 446.312V461H860.7V446.24C860.7 444.752 860.112 444.008 858.936 444.008C857.832 444.008 857.28 444.776 857.28 446.312V461H853.284V441.2H856.92ZM875.301 448.652C875.301 447.452 875.505 446.372 875.913 445.412C876.321 444.452 876.897 443.636 877.641 442.964C878.385 442.292 879.285 441.776 880.341 441.416C881.421 441.032 882.609 440.84 883.905 440.84C885.201 440.84 886.365 441.032 887.397 441.416C888.453 441.776 889.353 442.304 890.097 443C890.865 443.672 891.453 444.5 891.861 445.484C892.269 446.444 892.473 447.512 892.473 448.688V452.216H879.657V453.512C879.657 454.856 880.041 455.912 880.809 456.68C881.577 457.424 882.609 457.796 883.905 457.796C884.889 457.796 885.729 457.64 886.425 457.328C887.121 456.992 887.601 456.548 887.865 455.996H892.329C892.113 456.812 891.753 457.556 891.249 458.228C890.745 458.876 890.121 459.44 889.377 459.92C888.633 460.376 887.793 460.736 886.857 461C885.945 461.24 884.961 461.36 883.905 461.36C882.609 461.36 881.433 461.18 880.377 460.82C879.321 460.436 878.409 459.908 877.641 459.236C876.897 458.54 876.321 457.712 875.913 456.752C875.505 455.768 875.301 454.688 875.301 453.512V448.652ZM883.905 444.404C882.609 444.404 881.577 444.788 880.809 445.556C880.041 446.324 879.657 447.356 879.657 448.652V449.228H888.117V448.688C888.117 447.368 887.745 446.324 887.001 445.556C886.257 444.788 885.225 444.404 883.905 444.404ZM923.369 441.2V435.08H927.869V441.2H935.393V445.268H927.869V454.88C927.869 455.504 928.061 456.008 928.445 456.392C928.829 456.752 929.345 456.932 929.993 456.932H935.033V461H929.669C927.725 461 926.189 460.448 925.061 459.344C923.933 458.24 923.369 456.752 923.369 454.88V445.268H917.933V441.2H923.369ZM940.455 435.08H944.955V441.2C944.955 441.56 944.943 441.944 944.919 442.352C944.895 442.736 944.859 443.096 944.811 443.432C944.787 443.768 944.763 444.056 944.739 444.296C944.715 444.512 944.703 444.62 944.703 444.62H945.027C945.267 443.42 945.843 442.496 946.755 441.848C947.667 441.176 948.843 440.84 950.283 440.84C952.275 440.84 953.859 441.488 955.035 442.784C956.211 444.08 956.799 445.844 956.799 448.076V461H952.299V448.616C952.299 447.392 951.975 446.444 951.327 445.772C950.679 445.076 949.791 444.728 948.663 444.728C947.511 444.728 946.599 445.088 945.927 445.808C945.279 446.504 944.955 447.464 944.955 448.688V461H940.455V435.08ZM962.437 456.896H969.529V445.268H963.337V441.2H973.813V456.896H979.573V461H962.437V456.896ZM968.449 435.872C968.449 435.152 968.677 434.576 969.133 434.144C969.589 433.688 970.201 433.46 970.969 433.46H971.689C972.457 433.46 973.081 433.688 973.561 434.144C974.041 434.576 974.281 435.152 974.281 435.872C974.281 436.592 974.041 437.168 973.561 437.6C973.081 438.008 972.457 438.212 971.689 438.212H970.969C970.201 438.212 969.589 437.996 969.133 437.564C968.677 437.132 968.449 436.568 968.449 435.872ZM983.627 441.2H987.875V444.62H988.199C988.439 443.396 989.015 442.46 989.927 441.812C990.839 441.164 992.015 440.84 993.455 440.84C995.495 440.84 997.091 441.5 998.243 442.82C999.395 444.14 999.971 445.892 999.971 448.076V461H995.471V448.616C995.471 447.392 995.147 446.444 994.499 445.772C993.851 445.076 992.963 444.728 991.835 444.728C990.683 444.728 989.771 445.088 989.099 445.808C988.451 446.504 988.127 447.464 988.127 448.688V461H983.627V441.2ZM1004.71 448.508C1004.71 447.356 1004.87 446.312 1005.18 445.376C1005.51 444.416 1005.97 443.6 1006.55 442.928C1007.15 442.256 1007.87 441.74 1008.71 441.38C1009.57 441.02 1010.52 440.84 1011.55 440.84C1013.04 440.84 1014.26 441.2 1015.22 441.92C1016.21 442.616 1016.81 443.576 1017.02 444.8H1017.27V441.2H1021.59V459.884C1021.59 460.988 1021.4 461.984 1021.02 462.872C1020.63 463.76 1020.08 464.516 1019.36 465.14C1018.64 465.788 1017.78 466.28 1016.77 466.616C1015.76 466.952 1014.62 467.12 1013.35 467.12H1008.06V463.376H1013.35C1014.5 463.376 1015.41 463.064 1016.09 462.44C1016.76 461.816 1017.09 460.964 1017.09 459.884V459.38L1017.27 455.636H1017.02C1016.78 456.86 1016.18 457.832 1015.22 458.552C1014.26 459.248 1013.04 459.596 1011.55 459.596C1010.52 459.596 1009.58 459.416 1008.74 459.056C1007.9 458.696 1007.18 458.18 1006.58 457.508C1005.98 456.836 1005.51 456.032 1005.18 455.096C1004.87 454.136 1004.71 453.08 1004.71 451.928V448.508ZM1009.25 451.82C1009.25 453.044 1009.59 454.004 1010.29 454.7C1010.99 455.372 1011.95 455.708 1013.17 455.708C1014.39 455.708 1015.35 455.36 1016.05 454.664C1016.75 453.968 1017.09 453.02 1017.09 451.82V448.616C1017.09 447.416 1016.75 446.468 1016.05 445.772C1015.35 445.076 1014.39 444.728 1013.17 444.728C1011.95 444.728 1010.99 445.076 1010.29 445.772C1009.59 446.444 1009.25 447.392 1009.25 448.616V451.82ZM1026.3 455.924H1030.9C1031.07 456.548 1031.46 457.04 1032.06 457.4C1032.66 457.736 1033.39 457.904 1034.25 457.904H1035.73C1036.83 457.904 1037.68 457.688 1038.28 457.256C1038.91 456.824 1039.22 456.224 1039.22 455.456C1039.22 454.088 1038.2 453.284 1036.16 453.044L1033.35 452.684C1031.1 452.42 1029.43 451.808 1028.35 450.848C1027.27 449.864 1026.73 448.484 1026.73 446.708C1026.73 444.836 1027.39 443.396 1028.71 442.388C1030.03 441.356 1031.9 440.84 1034.32 440.84H1035.8C1037.98 440.84 1039.74 441.308 1041.06 442.244C1042.4 443.156 1043.19 444.44 1043.43 446.096H1038.82C1038.7 445.544 1038.37 445.112 1037.82 444.8C1037.29 444.464 1036.62 444.296 1035.8 444.296H1034.32C1033.32 444.296 1032.54 444.488 1031.98 444.872C1031.43 445.232 1031.16 445.796 1031.16 446.564C1031.16 447.812 1032.04 448.556 1033.82 448.796L1036.74 449.156C1039.09 449.444 1040.83 450.092 1041.96 451.1C1043.08 452.084 1043.65 453.488 1043.65 455.312C1043.65 457.256 1042.96 458.756 1041.6 459.812C1040.23 460.844 1038.27 461.36 1035.73 461.36H1034.25C1031.95 461.36 1030.1 460.892 1028.71 459.956C1027.32 458.996 1026.51 457.652 1026.3 455.924ZM1069.29 447.464V443.396H1074.76V440.768C1074.76 439.904 1074.9 439.124 1075.19 438.428C1075.5 437.732 1075.93 437.132 1076.49 436.628C1077.04 436.124 1077.7 435.74 1078.47 435.476C1079.23 435.212 1080.1 435.08 1081.06 435.08H1086.85V439.04H1081.17C1080.57 439.04 1080.1 439.208 1079.76 439.544C1079.43 439.856 1079.26 440.288 1079.26 440.84V443.396H1086.85V447.464H1079.26V461H1074.76V447.464H1069.29ZM1099.76 461.36C1098.47 461.36 1097.28 461.168 1096.2 460.784C1095.14 460.4 1094.24 459.872 1093.5 459.2C1092.76 458.504 1092.18 457.676 1091.77 456.716C1091.36 455.756 1091.16 454.688 1091.16 453.512V448.652C1091.16 447.476 1091.36 446.408 1091.77 445.448C1092.18 444.488 1092.76 443.672 1093.5 443C1094.24 442.304 1095.14 441.776 1096.2 441.416C1097.28 441.032 1098.47 440.84 1099.76 440.84C1101.06 440.84 1102.24 441.032 1103.29 441.416C1104.37 441.776 1105.28 442.304 1106.03 443C1106.77 443.672 1107.35 444.488 1107.76 445.448C1108.16 446.408 1108.37 447.476 1108.37 448.652V453.512C1108.37 454.688 1108.16 455.768 1107.76 456.752C1107.35 457.712 1106.77 458.54 1106.03 459.236C1105.28 459.908 1104.38 460.436 1103.33 460.82C1102.27 461.18 1101.08 461.36 1099.76 461.36ZM1095.66 453.512C1095.66 454.712 1096.02 455.66 1096.74 456.356C1097.48 457.052 1098.49 457.4 1099.76 457.4C1101.04 457.4 1102.03 457.052 1102.75 456.356C1103.5 455.66 1103.87 454.712 1103.87 453.512V448.652C1103.87 447.452 1103.5 446.504 1102.75 445.808C1102.03 445.112 1101.04 444.764 1099.76 444.764C1098.49 444.764 1097.48 445.112 1096.74 445.808C1096.02 446.504 1095.66 447.452 1095.66 448.652V453.512ZM1118.18 441.2V444.62H1118.58C1118.84 443.42 1119.44 442.496 1120.38 441.848C1121.34 441.176 1122.55 440.84 1124.01 440.84C1126.15 440.84 1127.82 441.512 1129.02 442.856C1130.22 444.176 1130.82 446 1130.82 448.328V449.732H1126.1V448.688C1126.1 447.416 1125.75 446.432 1125.06 445.736C1124.36 445.016 1123.4 444.656 1122.18 444.656C1121.03 444.656 1120.11 445.028 1119.44 445.772C1118.77 446.492 1118.43 447.464 1118.43 448.688V461H1113.93V441.2H1118.18ZM1155.45 455.456C1155.45 454.472 1155.63 453.596 1155.99 452.828C1156.35 452.036 1156.87 451.364 1157.54 450.812C1158.21 450.26 1159.01 449.84 1159.95 449.552C1160.91 449.24 1161.98 449.084 1163.15 449.084H1168.16V447.392C1168.16 446.48 1167.81 445.76 1167.11 445.232C1166.44 444.68 1165.49 444.404 1164.27 444.404C1163.29 444.404 1162.45 444.584 1161.75 444.944C1161.08 445.304 1160.65 445.796 1160.45 446.42H1156.06C1156.21 445.556 1156.51 444.788 1156.96 444.116C1157.42 443.42 1158.01 442.832 1158.73 442.352C1159.45 441.872 1160.27 441.5 1161.21 441.236C1162.17 440.972 1163.2 440.84 1164.31 440.84C1165.58 440.84 1166.73 440.996 1167.76 441.308C1168.79 441.596 1169.67 442.028 1170.39 442.604C1171.11 443.156 1171.66 443.84 1172.05 444.656C1172.45 445.448 1172.66 446.336 1172.66 447.32V461H1168.41V457.112H1168.09C1167.87 458.408 1167.2 459.44 1166.07 460.208C1164.94 460.976 1163.53 461.36 1161.82 461.36C1159.88 461.36 1158.33 460.832 1157.18 459.776C1156.03 458.696 1155.45 457.256 1155.45 455.456ZM1159.95 454.916C1159.95 455.828 1160.25 456.548 1160.85 457.076C1161.47 457.58 1162.34 457.832 1163.44 457.832C1164.81 457.832 1165.94 457.508 1166.83 456.86C1167.71 456.188 1168.16 455.348 1168.16 454.34V452.036H1163.19C1162.18 452.036 1161.39 452.288 1160.81 452.792C1160.24 453.296 1159.95 454.004 1159.95 454.916ZM1175.96 441.2H1179.77L1181.28 453.512C1181.33 453.944 1181.37 454.448 1181.39 455.024C1181.44 455.6 1181.48 456.152 1181.5 456.68C1181.52 457.304 1181.54 457.928 1181.54 458.552H1182.04C1182.09 457.928 1182.14 457.304 1182.18 456.68C1182.23 456.152 1182.28 455.6 1182.33 455.024C1182.4 454.448 1182.47 453.944 1182.54 453.512L1184.49 441.2H1187.8L1189.74 453.512C1189.82 453.968 1189.88 454.484 1189.92 455.06C1189.97 455.636 1190.02 456.188 1190.07 456.716C1190.09 457.316 1190.12 457.928 1190.14 458.552H1190.64C1190.67 457.928 1190.7 457.316 1190.75 456.716C1190.8 456.188 1190.84 455.636 1190.86 455.06C1190.91 454.484 1190.96 453.968 1191 453.512L1192.55 441.2H1196.26L1193.56 461H1188.41L1186.58 448.22C1186.53 447.86 1186.49 447.44 1186.47 446.96C1186.44 446.456 1186.42 445.988 1186.4 445.556C1186.37 445.028 1186.36 444.5 1186.36 443.972H1185.93C1185.93 444.5 1185.92 445.028 1185.89 445.556C1185.87 445.988 1185.84 446.456 1185.82 446.96C1185.8 447.44 1185.75 447.86 1185.68 448.22L1183.73 461H1178.62L1175.96 441.2ZM1199.09 448.652C1199.09 447.452 1199.29 446.372 1199.7 445.412C1200.11 444.452 1200.69 443.636 1201.43 442.964C1202.17 442.292 1203.07 441.776 1204.13 441.416C1205.21 441.032 1206.4 440.84 1207.69 440.84C1208.99 440.84 1210.15 441.032 1211.19 441.416C1212.24 441.776 1213.14 442.304 1213.89 443C1214.65 443.672 1215.24 444.5 1215.65 445.484C1216.06 446.444 1216.26 447.512 1216.26 448.688V452.216H1203.45V453.512C1203.45 454.856 1203.83 455.912 1204.6 456.68C1205.37 457.424 1206.4 457.796 1207.69 457.796C1208.68 457.796 1209.52 457.64 1210.21 457.328C1210.91 456.992 1211.39 456.548 1211.65 455.996H1216.12C1215.9 456.812 1215.54 457.556 1215.04 458.228C1214.53 458.876 1213.91 459.44 1213.17 459.92C1212.42 460.376 1211.58 460.736 1210.65 461C1209.73 461.24 1208.75 461.36 1207.69 461.36C1206.4 461.36 1205.22 461.18 1204.17 460.82C1203.11 460.436 1202.2 459.908 1201.43 459.236C1200.69 458.54 1200.11 457.712 1199.7 456.752C1199.29 455.768 1199.09 454.688 1199.09 453.512V448.652ZM1207.69 444.404C1206.4 444.404 1205.37 444.788 1204.6 445.556C1203.83 446.324 1203.45 447.356 1203.45 448.652V449.228H1211.91V448.688C1211.91 447.368 1211.53 446.324 1210.79 445.556C1210.05 444.788 1209.01 444.404 1207.69 444.404ZM1220.57 455.924H1225.18C1225.34 456.548 1225.73 457.04 1226.33 457.4C1226.93 457.736 1227.66 457.904 1228.52 457.904H1230C1231.1 457.904 1231.96 457.688 1232.56 457.256C1233.18 456.824 1233.49 456.224 1233.49 455.456C1233.49 454.088 1232.47 453.284 1230.43 453.044L1227.62 452.684C1225.37 452.42 1223.7 451.808 1222.62 450.848C1221.54 449.864 1221 448.484 1221 446.708C1221 444.836 1221.66 443.396 1222.98 442.388C1224.3 441.356 1226.17 440.84 1228.6 440.84H1230.07C1232.26 440.84 1234.01 441.308 1235.33 442.244C1236.67 443.156 1237.46 444.44 1237.7 446.096H1233.1C1232.98 445.544 1232.64 445.112 1232.09 444.8C1231.56 444.464 1230.89 444.296 1230.07 444.296H1228.6C1227.59 444.296 1226.81 444.488 1226.26 444.872C1225.7 445.232 1225.43 445.796 1225.43 446.564C1225.43 447.812 1226.32 448.556 1228.09 448.796L1231.01 449.156C1233.36 449.444 1235.1 450.092 1236.23 451.1C1237.36 452.084 1237.92 453.488 1237.92 455.312C1237.92 457.256 1237.24 458.756 1235.87 459.812C1234.5 460.844 1232.54 461.36 1230 461.36H1228.52C1226.22 461.36 1224.37 460.892 1222.98 459.956C1221.59 458.996 1220.78 457.652 1220.57 455.924ZM1250.87 461.36C1249.57 461.36 1248.38 461.168 1247.3 460.784C1246.25 460.4 1245.35 459.872 1244.6 459.2C1243.86 458.504 1243.28 457.676 1242.87 456.716C1242.47 455.756 1242.26 454.688 1242.26 453.512V448.652C1242.26 447.476 1242.47 446.408 1242.87 445.448C1243.28 444.488 1243.86 443.672 1244.6 443C1245.35 442.304 1246.25 441.776 1247.3 441.416C1248.38 441.032 1249.57 440.84 1250.87 440.84C1252.16 440.84 1253.34 441.032 1254.39 441.416C1255.47 441.776 1256.39 442.304 1257.13 443C1257.87 443.672 1258.45 444.488 1258.86 445.448C1259.27 446.408 1259.47 447.476 1259.47 448.652V453.512C1259.47 454.688 1259.27 455.768 1258.86 456.752C1258.45 457.712 1257.87 458.54 1257.13 459.236C1256.39 459.908 1255.49 460.436 1254.43 460.82C1253.37 461.18 1252.19 461.36 1250.87 461.36ZM1246.76 453.512C1246.76 454.712 1247.12 455.66 1247.84 456.356C1248.59 457.052 1249.59 457.4 1250.87 457.4C1252.14 457.4 1253.13 457.052 1253.85 456.356C1254.6 455.66 1254.97 454.712 1254.97 453.512V448.652C1254.97 447.452 1254.6 446.504 1253.85 445.808C1253.13 445.112 1252.14 444.764 1250.87 444.764C1249.59 444.764 1248.59 445.112 1247.84 445.808C1247.12 446.504 1246.76 447.452 1246.76 448.652V453.512ZM1267.05 441.2V444.08H1267.38C1267.45 443.072 1267.77 442.28 1268.35 441.704C1268.92 441.128 1269.7 440.84 1270.69 440.84C1271.6 440.84 1272.31 441.116 1272.81 441.668C1273.32 442.22 1273.68 443.024 1273.89 444.08H1274.18C1274.25 443.072 1274.58 442.28 1275.15 441.704C1275.73 441.128 1276.51 440.84 1277.49 440.84C1278.69 440.84 1279.66 441.284 1280.41 442.172C1281.15 443.06 1281.52 444.296 1281.52 445.88V461H1277.53V446.24C1277.53 444.752 1276.96 444.008 1275.84 444.008C1274.66 444.008 1274.07 444.776 1274.07 446.312V461H1270.83V446.24C1270.83 444.752 1270.24 444.008 1269.07 444.008C1267.96 444.008 1267.41 444.776 1267.41 446.312V461H1263.42V441.2H1267.05ZM1285.43 448.652C1285.43 447.452 1285.64 446.372 1286.05 445.412C1286.45 444.452 1287.03 443.636 1287.77 442.964C1288.52 442.292 1289.42 441.776 1290.47 441.416C1291.55 441.032 1292.74 440.84 1294.04 440.84C1295.33 440.84 1296.5 441.032 1297.53 441.416C1298.59 441.776 1299.49 442.304 1300.23 443C1301 443.672 1301.59 444.5 1301.99 445.484C1302.4 446.444 1302.61 447.512 1302.61 448.688V452.216H1289.79V453.512C1289.79 454.856 1290.17 455.912 1290.94 456.68C1291.71 457.424 1292.74 457.796 1294.04 457.796C1295.02 457.796 1295.86 457.64 1296.56 457.328C1297.25 456.992 1297.73 456.548 1298 455.996H1302.46C1302.25 456.812 1301.89 457.556 1301.38 458.228C1300.88 458.876 1300.25 459.44 1299.51 459.92C1298.77 460.376 1297.93 460.736 1296.99 461C1296.08 461.24 1295.09 461.36 1294.04 461.36C1292.74 461.36 1291.57 461.18 1290.51 460.82C1289.45 460.436 1288.54 459.908 1287.77 459.236C1287.03 458.54 1286.45 457.712 1286.05 456.752C1285.64 455.768 1285.43 454.688 1285.43 453.512V448.652ZM1294.04 444.404C1292.74 444.404 1291.71 444.788 1290.94 445.556C1290.17 446.324 1289.79 447.356 1289.79 448.652V449.228H1298.25V448.688C1298.25 447.368 1297.88 446.324 1297.13 445.556C1296.39 444.788 1295.36 444.404 1294.04 444.404ZM1329.04 441.2H1333.36V444.62H1333.68C1333.92 443.42 1334.51 442.496 1335.45 441.848C1336.38 441.176 1337.57 440.84 1339.01 440.84C1340.04 440.84 1340.98 441.02 1341.82 441.38C1342.66 441.74 1343.37 442.256 1343.94 442.928C1344.54 443.6 1345 444.416 1345.31 445.376C1345.65 446.312 1345.81 447.38 1345.81 448.58V453.512C1345.81 454.712 1345.65 455.804 1345.31 456.788C1345 457.748 1344.54 458.576 1343.94 459.272C1343.37 459.944 1342.66 460.46 1341.82 460.82C1340.98 461.18 1340.04 461.36 1339.01 461.36C1337.57 461.36 1336.38 461.024 1335.45 460.352C1334.51 459.68 1333.92 458.744 1333.68 457.544H1333.36C1333.36 457.616 1333.37 457.772 1333.39 458.012C1333.42 458.228 1333.44 458.504 1333.47 458.84C1333.49 459.176 1333.5 459.536 1333.5 459.92C1333.53 460.28 1333.54 460.64 1333.54 461V467.12H1329.04V441.2ZM1333.54 448.688V453.512C1333.54 454.688 1333.89 455.636 1334.58 456.356C1335.28 457.076 1336.21 457.436 1337.39 457.436C1338.61 457.436 1339.57 457.076 1340.27 456.356C1340.97 455.612 1341.31 454.628 1341.31 453.404V448.688C1341.31 447.464 1340.97 446.504 1340.27 445.808C1339.57 445.088 1338.61 444.728 1337.39 444.728C1336.24 444.728 1335.3 445.088 1334.58 445.808C1333.89 446.504 1333.54 447.464 1333.54 448.688ZM1350.19 448.652C1350.19 447.452 1350.4 446.372 1350.8 445.412C1351.21 444.452 1351.79 443.636 1352.53 442.964C1353.28 442.292 1354.18 441.776 1355.23 441.416C1356.31 441.032 1357.5 440.84 1358.8 440.84C1360.09 440.84 1361.26 441.032 1362.29 441.416C1363.34 441.776 1364.24 442.304 1364.99 443C1365.76 443.672 1366.34 444.5 1366.75 445.484C1367.16 446.444 1367.36 447.512 1367.36 448.688V452.216H1354.55V453.512C1354.55 454.856 1354.93 455.912 1355.7 456.68C1356.47 457.424 1357.5 457.796 1358.8 457.796C1359.78 457.796 1360.62 457.64 1361.32 457.328C1362.01 456.992 1362.49 456.548 1362.76 455.996H1367.22C1367 456.812 1366.64 457.556 1366.14 458.228C1365.64 458.876 1365.01 459.44 1364.27 459.92C1363.52 460.376 1362.68 460.736 1361.75 461C1360.84 461.24 1359.85 461.36 1358.8 461.36C1357.5 461.36 1356.32 461.18 1355.27 460.82C1354.21 460.436 1353.3 459.908 1352.53 459.236C1351.79 458.54 1351.21 457.712 1350.8 456.752C1350.4 455.768 1350.19 454.688 1350.19 453.512V448.652ZM1358.8 444.404C1357.5 444.404 1356.47 444.788 1355.7 445.556C1354.93 446.324 1354.55 447.356 1354.55 448.652V449.228H1363.01V448.688C1363.01 447.368 1362.64 446.324 1361.89 445.556C1361.15 444.788 1360.12 444.404 1358.8 444.404ZM1380.38 461.36C1379.09 461.36 1377.9 461.168 1376.82 460.784C1375.76 460.4 1374.86 459.872 1374.12 459.2C1373.37 458.504 1372.8 457.676 1372.39 456.716C1371.98 455.756 1371.78 454.688 1371.78 453.512V448.652C1371.78 447.476 1371.98 446.408 1372.39 445.448C1372.8 444.488 1373.37 443.672 1374.12 443C1374.86 442.304 1375.76 441.776 1376.82 441.416C1377.9 441.032 1379.09 440.84 1380.38 440.84C1381.68 440.84 1382.85 441.032 1383.91 441.416C1384.99 441.776 1385.9 442.304 1386.65 443C1387.39 443.672 1387.97 444.488 1388.37 445.448C1388.78 446.408 1388.99 447.476 1388.99 448.652V453.512C1388.99 454.688 1388.78 455.768 1388.37 456.752C1387.97 457.712 1387.39 458.54 1386.65 459.236C1385.9 459.908 1385 460.436 1383.95 460.82C1382.89 461.18 1381.7 461.36 1380.38 461.36ZM1376.28 453.512C1376.28 454.712 1376.64 455.66 1377.36 456.356C1378.1 457.052 1379.11 457.4 1380.38 457.4C1381.65 457.4 1382.65 457.052 1383.37 456.356C1384.11 455.66 1384.49 454.712 1384.49 453.512V448.652C1384.49 447.452 1384.11 446.504 1383.37 445.808C1382.65 445.112 1381.65 444.764 1380.38 444.764C1379.11 444.764 1378.1 445.112 1377.36 445.808C1376.64 446.504 1376.28 447.452 1376.28 448.652V453.512ZM1393.8 441.2H1398.12V444.62H1398.44C1398.68 443.42 1399.27 442.496 1400.2 441.848C1401.14 441.176 1402.33 440.84 1403.77 440.84C1404.8 440.84 1405.74 441.02 1406.58 441.38C1407.42 441.74 1408.12 442.256 1408.7 442.928C1409.3 443.6 1409.76 444.416 1410.07 445.376C1410.4 446.312 1410.57 447.38 1410.57 448.58V453.512C1410.57 454.712 1410.4 455.804 1410.07 456.788C1409.76 457.748 1409.3 458.576 1408.7 459.272C1408.12 459.944 1407.42 460.46 1406.58 460.82C1405.74 461.18 1404.8 461.36 1403.77 461.36C1402.33 461.36 1401.14 461.024 1400.2 460.352C1399.27 459.68 1398.68 458.744 1398.44 457.544H1398.12C1398.12 457.616 1398.13 457.772 1398.15 458.012C1398.18 458.228 1398.2 458.504 1398.22 458.84C1398.25 459.176 1398.26 459.536 1398.26 459.92C1398.28 460.28 1398.3 460.64 1398.3 461V467.12H1393.8V441.2ZM1398.3 448.688V453.512C1398.3 454.688 1398.64 455.636 1399.34 456.356C1400.04 457.076 1400.97 457.436 1402.15 457.436C1403.37 457.436 1404.33 457.076 1405.03 456.356C1405.72 455.612 1406.07 454.628 1406.07 453.404V448.688C1406.07 447.464 1405.72 446.504 1405.03 445.808C1404.33 445.088 1403.37 444.728 1402.15 444.728C1401 444.728 1400.06 445.088 1399.34 445.808C1398.64 446.504 1398.3 447.464 1398.3 448.688ZM1413.87 439.148V435.08H1424.67V454.412C1424.67 455.18 1424.89 455.792 1425.32 456.248C1425.77 456.704 1426.37 456.932 1427.12 456.932H1432.88V461H1426.83C1425.82 461 1424.91 460.844 1424.09 460.532C1423.28 460.22 1422.58 459.776 1422.01 459.2C1421.43 458.624 1420.97 457.928 1420.64 457.112C1420.33 456.296 1420.17 455.396 1420.17 454.412V439.148H1413.87ZM1436.54 448.652C1436.54 447.452 1436.74 446.372 1437.15 445.412C1437.56 444.452 1438.13 443.636 1438.88 442.964C1439.62 442.292 1440.52 441.776 1441.58 441.416C1442.66 441.032 1443.84 440.84 1445.14 440.84C1446.44 440.84 1447.6 441.032 1448.63 441.416C1449.69 441.776 1450.59 442.304 1451.33 443C1452.1 443.672 1452.69 444.5 1453.1 445.484C1453.5 446.444 1453.71 447.512 1453.71 448.688V452.216H1440.89V453.512C1440.89 454.856 1441.28 455.912 1442.04 456.68C1442.81 457.424 1443.84 457.796 1445.14 457.796C1446.12 457.796 1446.96 457.64 1447.66 457.328C1448.36 456.992 1448.84 456.548 1449.1 455.996H1453.56C1453.35 456.812 1452.99 457.556 1452.48 458.228C1451.98 458.876 1451.36 459.44 1450.61 459.92C1449.87 460.376 1449.03 460.736 1448.09 461C1447.18 461.24 1446.2 461.36 1445.14 461.36C1443.84 461.36 1442.67 461.18 1441.61 460.82C1440.56 460.436 1439.64 459.908 1438.88 459.236C1438.13 458.54 1437.56 457.712 1437.15 456.752C1436.74 455.768 1436.54 454.688 1436.54 453.512V448.652ZM1445.14 444.404C1443.84 444.404 1442.81 444.788 1442.04 445.556C1441.28 446.324 1440.89 447.356 1440.89 448.652V449.228H1449.35V448.688C1449.35 447.368 1448.98 446.324 1448.24 445.556C1447.49 444.788 1446.46 444.404 1445.14 444.404ZM1464.28 435.08H1469.17V440.012L1468.38 452.612H1465.07L1464.28 440.012V435.08ZM1463.7 458.84C1463.7 458.12 1463.93 457.544 1464.39 457.112C1464.87 456.656 1465.49 456.428 1466.26 456.428H1467.19C1467.96 456.428 1468.57 456.656 1469.03 457.112C1469.51 457.544 1469.75 458.12 1469.75 458.84C1469.75 459.56 1469.51 460.136 1469.03 460.568C1468.57 460.976 1467.95 461.18 1467.16 461.18H1466.26C1465.49 461.18 1464.87 460.964 1464.39 460.532C1463.93 460.1 1463.7 459.536 1463.7 458.84Z" />
    <path
       id="path12"
       fill="white"
       d="M1285.11 267.821H1288.68V278.535H1285.1L1285.11 267.821ZM1294.93 267.821H1298.5V278.535H1294.93V267.821ZM1273.5 258L1264.57 266.929V299.071H1275.29V308L1284.21 299.071H1291.36L1307.43 283V258H1273.5ZM1303.86 281.215L1296.71 288.356H1289.57L1283.32 294.606V288.356H1275.29V261.571H1303.86V281.215Z" />
    <path
       id="path14"
       fill="white"
       d="M1328.99 301.62V297.444H1334.17C1335.32 297.444 1336.25 297.084 1336.94 296.364C1337.66 295.668 1338.02 294.744 1338.02 293.592V279.876H1330.07V275.7H1342.52V293.592C1342.52 294.792 1342.32 295.884 1341.91 296.868C1341.53 297.876 1340.98 298.728 1340.26 299.424C1339.56 300.12 1338.71 300.66 1337.7 301.044C1336.72 301.428 1335.61 301.62 1334.39 301.62H1328.99ZM1337.23 270.372C1337.23 269.652 1337.46 269.076 1337.92 268.644C1338.37 268.188 1338.98 267.96 1339.75 267.96H1340.47C1341.24 267.96 1341.86 268.188 1342.34 268.644C1342.82 269.076 1343.06 269.652 1343.06 270.372C1343.06 271.092 1342.82 271.668 1342.34 272.1C1341.86 272.508 1341.24 272.712 1340.47 272.712H1339.75C1338.98 272.712 1338.37 272.496 1337.92 272.064C1337.46 271.632 1337.23 271.068 1337.23 270.372ZM1350.21 269.58H1354.71V275.7C1354.71 276.06 1354.7 276.444 1354.68 276.852C1354.65 277.236 1354.62 277.596 1354.57 277.932C1354.55 278.268 1354.52 278.556 1354.5 278.796C1354.47 279.012 1354.46 279.12 1354.46 279.12H1354.79C1355.03 277.92 1355.6 276.996 1356.51 276.348C1357.43 275.676 1358.6 275.34 1360.04 275.34C1362.03 275.34 1363.62 275.988 1364.79 277.284C1365.97 278.58 1366.56 280.344 1366.56 282.576V295.5H1362.06V283.116C1362.06 281.892 1361.73 280.944 1361.09 280.272C1360.44 279.576 1359.55 279.228 1358.42 279.228C1357.27 279.228 1356.36 279.588 1355.69 280.308C1355.04 281.004 1354.71 281.964 1354.71 283.188V295.5H1350.21V269.58ZM1379.94 295.86C1378.71 295.86 1377.58 295.704 1376.55 295.392C1375.52 295.056 1374.62 294.588 1373.85 293.988C1373.08 293.364 1372.47 292.62 1372.02 291.756C1371.56 290.892 1371.28 289.92 1371.19 288.84H1375.69C1375.83 289.8 1376.29 290.58 1377.06 291.18C1377.85 291.756 1378.81 292.044 1379.94 292.044C1381.23 292.044 1382.26 291.648 1383.03 290.856C1383.82 290.064 1384.22 289.02 1384.22 287.724C1384.22 286.428 1383.81 285.396 1383 284.628C1382.2 283.836 1381.12 283.44 1379.76 283.44H1376.62V279.156L1380.76 275.232C1381.39 274.704 1381.98 274.248 1382.53 273.864C1382.82 273.672 1383.12 273.48 1383.43 273.288V273.072C1383.12 273.144 1382.77 273.192 1382.38 273.216C1381.71 273.336 1380.91 273.396 1379.97 273.396H1372.27V269.58H1387.6V273.9L1382.35 278.508C1382.16 278.676 1381.96 278.832 1381.77 278.976C1381.58 279.12 1381.4 279.252 1381.23 279.372C1381.04 279.492 1380.86 279.6 1380.69 279.696C1381.92 279.744 1383.02 279.972 1384 280.38C1385.01 280.788 1385.86 281.34 1386.56 282.036C1387.28 282.732 1387.82 283.56 1388.18 284.52C1388.56 285.48 1388.76 286.548 1388.76 287.724C1388.76 288.948 1388.54 290.064 1388.11 291.072C1387.7 292.08 1387.11 292.944 1386.34 293.664C1385.58 294.36 1384.65 294.9 1383.57 295.284C1382.49 295.668 1381.28 295.86 1379.94 295.86ZM1392.02 275.7H1396.91L1400.87 286.32C1401.04 286.776 1401.17 287.232 1401.27 287.688C1401.36 288.144 1401.44 288.576 1401.48 288.984C1401.53 289.416 1401.57 289.848 1401.59 290.28H1402.02C1402.05 289.872 1402.08 289.44 1402.13 288.984C1402.18 288.6 1402.24 288.18 1402.31 287.724C1402.41 287.244 1402.54 286.776 1402.71 286.32L1406.42 275.7H1411.2L1401.66 301.62H1396.91L1399.65 294.384L1392.02 275.7ZM1413.6 275.7H1418.5L1422.46 286.32C1422.63 286.776 1422.76 287.232 1422.85 287.688C1422.95 288.144 1423.02 288.576 1423.07 288.984C1423.12 289.416 1423.15 289.848 1423.18 290.28H1423.61C1423.63 289.872 1423.67 289.44 1423.72 288.984C1423.77 288.6 1423.83 288.18 1423.9 287.724C1423.99 287.244 1424.13 286.776 1424.29 286.32L1428 275.7H1432.79L1423.25 301.62H1418.5L1421.23 294.384L1413.6 275.7Z" />
    <path
       id="path16"
       fill="white"
       d="M1286 328C1279.21 328 1278.36 328.031 1275.69 328.15C1273.03 328.275 1271.22 328.694 1269.62 329.312C1267.98 329.95 1266.59 330.806 1265.2 332.196C1263.81 333.585 1262.95 334.979 1262.31 336.625C1261.69 338.219 1261.27 340.031 1261.15 342.694C1261.02 345.36 1261 346.208 1261 353C1261 359.792 1261.03 360.64 1261.15 363.306C1261.27 365.967 1261.69 367.781 1262.31 369.375C1262.95 371.017 1263.81 372.415 1265.2 373.804C1266.59 375.192 1267.98 376.052 1269.62 376.688C1271.22 377.304 1273.03 377.727 1275.69 377.85C1278.36 377.975 1279.21 378 1286 378C1292.79 378 1293.64 377.969 1296.31 377.85C1298.97 377.725 1300.78 377.304 1302.38 376.688C1304.02 376.05 1305.41 375.192 1306.8 373.804C1308.19 372.415 1309.05 371.023 1309.69 369.375C1310.3 367.781 1310.73 365.967 1310.85 363.306C1310.97 360.64 1311 359.792 1311 353C1311 346.208 1310.97 345.36 1310.85 342.694C1310.72 340.033 1310.3 338.217 1309.69 336.625C1309.05 334.981 1308.19 333.585 1306.8 332.196C1305.41 330.806 1304.02 329.948 1302.38 329.312C1300.78 328.694 1298.97 328.273 1296.31 328.15C1293.64 328.025 1292.79 328 1286 328ZM1286 332.5C1292.67 332.5 1293.47 332.533 1296.1 332.648C1298.54 332.762 1299.86 333.167 1300.74 333.512C1301.91 333.965 1302.74 334.506 1303.62 335.379C1304.5 336.254 1305.04 337.085 1305.49 338.256C1305.83 339.135 1306.24 340.458 1306.35 342.896C1306.47 345.533 1306.5 346.325 1306.5 353C1306.5 359.675 1306.46 360.469 1306.34 363.104C1306.21 365.542 1305.81 366.865 1305.46 367.744C1305 368.915 1304.47 369.744 1303.59 370.623C1302.72 371.496 1301.87 372.037 1300.72 372.49C1299.84 372.831 1298.5 373.24 1296.06 373.35C1293.41 373.469 1292.62 373.496 1285.94 373.496C1279.25 373.496 1278.47 373.465 1275.81 373.342C1273.38 373.215 1272.03 372.808 1271.16 372.465C1269.97 371.998 1269.16 371.467 1268.28 370.592C1267.41 369.719 1266.85 368.875 1266.41 367.717C1266.06 366.842 1265.66 365.498 1265.53 363.06C1265.44 360.435 1265.41 359.625 1265.41 352.969C1265.41 346.31 1265.44 345.498 1265.53 342.842C1265.66 340.404 1266.06 339.062 1266.41 338.187C1266.85 337 1267.41 336.188 1268.28 335.31C1269.16 334.438 1269.97 333.875 1271.16 333.44C1272.03 333.094 1273.35 332.688 1275.78 332.562C1278.44 332.469 1279.22 332.438 1285.91 332.438L1286 332.5ZM1286 340.162C1278.91 340.162 1273.16 345.912 1273.16 353C1273.16 360.094 1278.91 365.838 1286 365.838C1293.09 365.838 1298.84 360.087 1298.84 353C1298.84 345.906 1293.09 340.162 1286 340.162ZM1286 361.333C1281.4 361.333 1277.67 357.604 1277.67 353C1277.67 348.396 1281.4 344.667 1286 344.667C1290.6 344.667 1294.33 348.396 1294.33 353C1294.33 357.604 1290.6 361.333 1286 361.333ZM1302.35 339.656C1302.35 341.312 1301 342.656 1299.35 342.656C1297.69 342.656 1296.35 341.31 1296.35 339.656C1296.35 338.002 1297.69 336.658 1299.35 336.658C1301 336.656 1302.35 338.002 1302.35 339.656Z" />
    <path
       id="path18"
       fill="white"
       d="M1329.4 371.62V367.444H1334.59C1335.74 367.444 1336.66 367.084 1337.36 366.364C1338.08 365.668 1338.44 364.744 1338.44 363.592V349.876H1330.48V345.7H1342.94V363.592C1342.94 364.792 1342.73 365.884 1342.33 366.868C1341.94 367.876 1341.39 368.728 1340.67 369.424C1339.97 370.12 1339.12 370.66 1338.11 371.044C1337.13 371.428 1336.03 371.62 1334.8 371.62H1329.4ZM1337.65 340.372C1337.65 339.652 1337.87 339.076 1338.33 338.644C1338.79 338.188 1339.4 337.96 1340.17 337.96H1340.89C1341.65 337.96 1342.28 338.188 1342.76 338.644C1343.24 339.076 1343.48 339.652 1343.48 340.372C1343.48 341.092 1343.24 341.668 1342.76 342.1C1342.28 342.508 1341.65 342.712 1340.89 342.712H1340.17C1339.4 342.712 1338.79 342.496 1338.33 342.064C1337.87 341.632 1337.65 341.068 1337.65 340.372ZM1350.63 339.58H1355.13V345.7C1355.13 346.06 1355.12 346.444 1355.09 346.852C1355.07 347.236 1355.03 347.596 1354.98 347.932C1354.96 348.268 1354.94 348.556 1354.91 348.796C1354.89 349.012 1354.88 349.12 1354.88 349.12H1355.2C1355.44 347.92 1356.02 346.996 1356.93 346.348C1357.84 345.676 1359.02 345.34 1360.46 345.34C1362.45 345.34 1364.03 345.988 1365.21 347.284C1366.38 348.58 1366.97 350.344 1366.97 352.576V365.5H1362.47V353.116C1362.47 351.892 1362.15 350.944 1361.5 350.272C1360.85 349.576 1359.96 349.228 1358.84 349.228C1357.68 349.228 1356.77 349.588 1356.1 350.308C1355.45 351.004 1355.13 351.964 1355.13 353.188V365.5H1350.63V339.58ZM1380.35 365.86C1379.13 365.86 1378 365.704 1376.97 365.392C1375.93 365.056 1375.03 364.588 1374.27 363.988C1373.5 363.364 1372.89 362.62 1372.43 361.756C1371.97 360.892 1371.7 359.92 1371.6 358.84H1376.1C1376.25 359.8 1376.7 360.58 1377.47 361.18C1378.26 361.756 1379.22 362.044 1380.35 362.044C1381.65 362.044 1382.68 361.648 1383.45 360.856C1384.24 360.064 1384.63 359.02 1384.63 357.724C1384.63 356.428 1384.23 355.396 1383.41 354.628C1382.62 353.836 1381.54 353.44 1380.17 353.44H1377.04V349.156L1381.18 345.232C1381.8 344.704 1382.39 344.248 1382.94 343.864C1383.23 343.672 1383.53 343.48 1383.84 343.288V343.072C1383.53 343.144 1383.18 343.192 1382.8 343.216C1382.13 343.336 1381.32 343.396 1380.39 343.396H1372.68V339.58H1388.02V343.9L1382.76 348.508C1382.57 348.676 1382.38 348.832 1382.19 348.976C1381.99 349.12 1381.81 349.252 1381.65 349.372C1381.45 349.492 1381.27 349.6 1381.11 349.696C1382.33 349.744 1383.43 349.972 1384.42 350.38C1385.43 350.788 1386.28 351.34 1386.97 352.036C1387.69 352.732 1388.23 353.56 1388.59 354.52C1388.98 355.48 1389.17 356.548 1389.17 357.724C1389.17 358.948 1388.95 360.064 1388.52 361.072C1388.11 362.08 1387.53 362.944 1386.76 363.664C1385.99 364.36 1385.07 364.9 1383.99 365.284C1382.91 365.668 1381.69 365.86 1380.35 365.86ZM1392.43 345.7H1397.33L1401.29 356.32C1401.46 356.776 1401.59 357.232 1401.68 357.688C1401.78 358.144 1401.85 358.576 1401.9 358.984C1401.95 359.416 1401.98 359.848 1402.01 360.28H1402.44C1402.46 359.872 1402.5 359.44 1402.55 358.984C1402.6 358.6 1402.66 358.18 1402.73 357.724C1402.82 357.244 1402.96 356.776 1403.12 356.32L1406.83 345.7H1411.62L1402.08 371.62H1397.33L1400.06 364.384L1392.43 345.7ZM1414.02 345.7H1418.91L1422.87 356.32C1423.04 356.776 1423.17 357.232 1423.27 357.688C1423.36 358.144 1423.44 358.576 1423.48 358.984C1423.53 359.416 1423.57 359.848 1423.59 360.28H1424.02C1424.05 359.872 1424.08 359.44 1424.13 358.984C1424.18 358.6 1424.24 358.18 1424.31 357.724C1424.41 357.244 1424.54 356.776 1424.71 356.32L1428.42 345.7H1433.2L1423.66 371.62H1418.91L1421.65 364.384L1414.02 345.7ZM1435.6 345.7H1440.5L1444.46 356.32C1444.63 356.776 1444.76 357.232 1444.85 357.688C1444.95 358.144 1445.02 358.576 1445.07 358.984C1445.12 359.416 1445.15 359.848 1445.18 360.28H1445.61C1445.63 359.872 1445.67 359.44 1445.72 358.984C1445.77 358.6 1445.83 358.18 1445.9 357.724C1445.99 357.244 1446.13 356.776 1446.29 356.32L1450 345.7H1454.79L1445.25 371.62H1440.5L1443.23 364.384L1435.6 345.7ZM1457.19 345.7H1462.08L1466.04 356.32C1466.21 356.776 1466.34 357.232 1466.44 357.688C1466.54 358.144 1466.61 358.576 1466.66 358.984C1466.7 359.416 1466.74 359.848 1466.76 360.28H1467.2C1467.22 359.872 1467.26 359.44 1467.3 358.984C1467.35 358.6 1467.41 358.18 1467.48 357.724C1467.58 357.244 1467.71 356.776 1467.88 356.32L1471.59 345.7H1476.38L1466.84 371.62H1462.08L1464.82 364.384L1457.19 345.7Z" />
    <path
       id="path20"
       fill="white"
       d="M1276.46 138.938C1276.08 138.604 1275.5 138.458 1274.71 138.458H1273.5L1273.54 143.542L1273.62 148.646L1274.79 148.604C1275.65 148.604 1276.1 148.458 1276.52 148.063C1277.02 147.563 1277.06 147.313 1277.06 143.479C1277.06 139.5 1277.02 139.396 1276.46 138.938ZM1261 128.292V157.708H1311V128.292H1261ZM1278.83 149.875C1277.92 151.083 1276.62 151.479 1273.56 151.479H1270.81V135.771H1273.73C1277.21 135.771 1278.23 136.146 1279.15 137.646C1279.71 138.542 1279.75 138.896 1279.81 143C1279.92 147.646 1279.77 148.688 1278.83 149.875ZM1289.44 138.479H1284.29V142.167H1287.46V144.833L1285.96 144.917L1284.4 144.979V148.667L1286.94 148.729L1289.44 148.813V151.479H1286.1C1282.92 151.479 1282.77 151.458 1282.21 150.854L1281.58 150.271V143.688C1281.58 137.396 1281.6 137.063 1282.1 136.438C1282.58 135.792 1282.62 135.792 1286.02 135.792H1289.44V138.5V138.479ZM1299.19 149.833C1298.83 150.729 1297.85 151.479 1297.1 151.479C1296.73 151.479 1296.17 151.167 1295.71 150.667C1295.04 150 1294.77 149.354 1294 146.333L1292.12 139.271L1291.19 135.792H1292.77C1293.6 135.792 1294.33 135.833 1294.33 135.896C1294.33 136.021 1296.75 145.354 1296.96 145.958C1297.04 146.271 1297.62 144.5 1298.48 141.167L1299.85 135.917L1301.4 135.833C1302.23 135.792 1302.92 135.833 1302.92 135.917C1302.92 136.208 1299.44 149.208 1299.17 149.833H1299.19Z" />
    <path
       id="path22"
       fill="white"
       d="M1329.28 161.62V157.444H1334.46C1335.62 157.444 1336.54 157.084 1337.24 156.364C1337.96 155.668 1338.32 154.744 1338.32 153.592V139.876H1330.36V135.7H1342.82V153.592C1342.82 154.792 1342.61 155.884 1342.2 156.868C1341.82 157.876 1341.27 158.728 1340.55 159.424C1339.85 160.12 1339 160.66 1337.99 161.044C1337.01 161.428 1335.9 161.62 1334.68 161.62H1329.28ZM1337.52 130.372C1337.52 129.652 1337.75 129.076 1338.21 128.644C1338.66 128.188 1339.28 127.96 1340.04 127.96H1340.76C1341.53 127.96 1342.16 128.188 1342.64 128.644C1343.12 129.076 1343.36 129.652 1343.36 130.372C1343.36 131.092 1343.12 131.668 1342.64 132.1C1342.16 132.508 1341.53 132.712 1340.76 132.712H1340.04C1339.28 132.712 1338.66 132.496 1338.21 132.064C1337.75 131.632 1337.52 131.068 1337.52 130.372ZM1350.51 129.58H1355.01V135.7C1355.01 136.06 1354.99 136.444 1354.97 136.852C1354.95 137.236 1354.91 137.596 1354.86 137.932C1354.84 138.268 1354.81 138.556 1354.79 138.796C1354.77 139.012 1354.75 139.12 1354.75 139.12H1355.08C1355.32 137.92 1355.89 136.996 1356.81 136.348C1357.72 135.676 1358.89 135.34 1360.33 135.34C1362.33 135.34 1363.91 135.988 1365.09 137.284C1366.26 138.58 1366.85 140.344 1366.85 142.576V155.5H1362.35V143.116C1362.35 141.892 1362.03 140.944 1361.38 140.272C1360.73 139.576 1359.84 139.228 1358.71 139.228C1357.56 139.228 1356.65 139.588 1355.98 140.308C1355.33 141.004 1355.01 141.964 1355.01 143.188V155.5H1350.51V129.58ZM1380.23 155.86C1379 155.86 1377.88 155.704 1376.84 155.392C1375.81 155.056 1374.91 154.588 1374.14 153.988C1373.38 153.364 1372.76 152.62 1372.31 151.756C1371.85 150.892 1371.58 149.92 1371.48 148.84H1375.98C1376.12 149.8 1376.58 150.58 1377.35 151.18C1378.14 151.756 1379.1 152.044 1380.23 152.044C1381.52 152.044 1382.56 151.648 1383.32 150.856C1384.12 150.064 1384.51 149.02 1384.51 147.724C1384.51 146.428 1384.1 145.396 1383.29 144.628C1382.5 143.836 1381.42 143.44 1380.05 143.44H1376.92V139.156L1381.06 135.232C1381.68 134.704 1382.27 134.248 1382.82 133.864C1383.11 133.672 1383.41 133.48 1383.72 133.288V133.072C1383.41 133.144 1383.06 133.192 1382.68 133.216C1382 133.336 1381.2 133.396 1380.26 133.396H1372.56V129.58H1387.9V133.9L1382.64 138.508C1382.45 138.676 1382.26 138.832 1382.06 138.976C1381.87 139.12 1381.69 139.252 1381.52 139.372C1381.33 139.492 1381.15 139.6 1380.98 139.696C1382.21 139.744 1383.31 139.972 1384.3 140.38C1385.3 140.788 1386.16 141.34 1386.85 142.036C1387.57 142.732 1388.11 143.56 1388.47 144.52C1388.86 145.48 1389.05 146.548 1389.05 147.724C1389.05 148.948 1388.83 150.064 1388.4 151.072C1387.99 152.08 1387.4 152.944 1386.64 153.664C1385.87 154.36 1384.94 154.9 1383.86 155.284C1382.78 155.668 1381.57 155.86 1380.23 155.86ZM1392.31 135.7H1397.21L1401.17 146.32C1401.33 146.776 1401.47 147.232 1401.56 147.688C1401.66 148.144 1401.73 148.576 1401.78 148.984C1401.83 149.416 1401.86 149.848 1401.89 150.28H1402.32C1402.34 149.872 1402.38 149.44 1402.43 148.984C1402.47 148.6 1402.53 148.18 1402.61 147.724C1402.7 147.244 1402.83 146.776 1403 146.32L1406.71 135.7H1411.5L1401.96 161.62H1397.21L1399.94 154.384L1392.31 135.7Z" />
    <path
       id="path24"
       fill="white"
       d="M1298.8 75.2229V70.7771L1295.48 73L1298.8 75.2229ZM1301.46 77.7104C1301.46 77.7683 1301.45 77.826 1301.45 77.8833L1301.44 77.9417L1301.41 78.0521L1301.39 78.1167C1301.38 78.15 1301.37 78.1812 1301.36 78.2146L1301.33 78.2771C1301.31 78.3074 1301.3 78.3373 1301.28 78.3667L1301.24 78.4292C1301.2 78.5047 1301.14 78.5745 1301.08 78.6375L1301.02 78.6896C1301 78.7114 1300.97 78.7322 1300.95 78.7521L1300.89 78.7979L1300.87 78.8146L1286.74 88.2354C1286.52 88.3813 1286.26 88.4592 1286 88.4592C1285.74 88.4592 1285.48 88.3813 1285.26 88.2354L1271.13 78.8125L1271.11 78.7958C1271.06 78.7629 1271.02 78.7267 1270.98 78.6875L1270.92 78.6354L1270.86 78.5646L1270.81 78.5062C1270.76 78.4352 1270.71 78.3584 1270.67 78.2771L1270.64 78.2125C1270.63 78.1803 1270.62 78.1477 1270.61 78.1146L1270.59 78.0521C1270.58 78.0146 1270.57 77.9771 1270.57 77.9396L1270.55 77.8813C1270.55 77.8239 1270.54 77.7662 1270.54 77.7083V68.2896C1270.54 68.2313 1270.55 68.175 1270.55 68.1167L1270.56 68.0604L1270.59 67.9479L1270.61 67.8854C1270.66 67.7183 1270.74 67.564 1270.86 67.4333L1270.92 67.3625L1270.98 67.3104C1271.02 67.2713 1271.06 67.2351 1271.11 67.2021L1271.13 67.1854L1285.26 57.7667C1285.48 57.621 1285.74 57.5433 1286 57.5433C1286.26 57.5433 1286.52 57.621 1286.74 57.7667L1300.87 67.1854L1300.89 67.2021L1300.95 67.2479L1301.02 67.3104C1301.04 67.3271 1301.06 67.3437 1301.08 67.3625C1301.14 67.4252 1301.2 67.4951 1301.24 67.5708L1301.28 67.6333C1301.3 67.6626 1301.31 67.6925 1301.33 67.7229L1301.36 67.7854C1301.37 67.8187 1301.38 67.8521 1301.39 67.8833L1301.41 67.9479C1301.42 67.9854 1301.43 68.0229 1301.43 68.0604L1301.45 68.1167C1301.45 68.174 1301.46 68.2317 1301.46 68.2896V77.7104ZM1286 48C1272.19 48 1261 59.1917 1261 73C1261 86.8062 1272.19 98 1286 98C1299.81 98 1311 86.8083 1311 73C1311 59.1937 1299.81 48 1286 48ZM1286 69.8583L1281.3 73L1286 76.1458L1290.7 73L1286 69.8583ZM1287.33 78.45V84.6479L1297.74 77.7104L1293.09 74.6L1287.33 78.45ZM1274.26 77.7083L1284.67 84.6458V78.45L1278.91 74.5979L1274.26 77.7083ZM1297.74 68.2917L1287.33 61.3542V67.55L1293.09 71.4042L1297.74 68.2917ZM1284.67 67.55V61.3542L1274.26 68.2917L1278.91 71.4021L1284.67 67.55ZM1273.2 70.7771V75.2229L1276.52 73L1273.2 70.7771Z" />
    <path
       id="path26"
       fill="white"
       d="M1329.28 91.62V87.444H1334.46C1335.62 87.444 1336.54 87.084 1337.24 86.364C1337.96 85.668 1338.32 84.744 1338.32 83.592V69.876H1330.36V65.7H1342.82V83.592C1342.82 84.792 1342.61 85.884 1342.2 86.868C1341.82 87.876 1341.27 88.728 1340.55 89.424C1339.85 90.12 1339 90.66 1337.99 91.044C1337.01 91.428 1335.9 91.62 1334.68 91.62H1329.28ZM1337.52 60.372C1337.52 59.652 1337.75 59.076 1338.21 58.644C1338.66 58.188 1339.28 57.96 1340.04 57.96H1340.76C1341.53 57.96 1342.16 58.188 1342.64 58.644C1343.12 59.076 1343.36 59.652 1343.36 60.372C1343.36 61.092 1343.12 61.668 1342.64 62.1C1342.16 62.508 1341.53 62.712 1340.76 62.712H1340.04C1339.28 62.712 1338.66 62.496 1338.21 62.064C1337.75 61.632 1337.52 61.068 1337.52 60.372ZM1350.51 59.58H1355.01V65.7C1355.01 66.06 1354.99 66.444 1354.97 66.852C1354.95 67.236 1354.91 67.596 1354.86 67.932C1354.84 68.268 1354.81 68.556 1354.79 68.796C1354.77 69.012 1354.75 69.12 1354.75 69.12H1355.08C1355.32 67.92 1355.89 66.996 1356.81 66.348C1357.72 65.676 1358.89 65.34 1360.33 65.34C1362.33 65.34 1363.91 65.988 1365.09 67.284C1366.26 68.58 1366.85 70.344 1366.85 72.576V85.5H1362.35V73.116C1362.35 71.892 1362.03 70.944 1361.38 70.272C1360.73 69.576 1359.84 69.228 1358.71 69.228C1357.56 69.228 1356.65 69.588 1355.98 70.308C1355.33 71.004 1355.01 71.964 1355.01 73.188V85.5H1350.51V59.58ZM1380.23 85.86C1379 85.86 1377.88 85.704 1376.84 85.392C1375.81 85.056 1374.91 84.588 1374.14 83.988C1373.38 83.364 1372.76 82.62 1372.31 81.756C1371.85 80.892 1371.58 79.92 1371.48 78.84H1375.98C1376.12 79.8 1376.58 80.58 1377.35 81.18C1378.14 81.756 1379.1 82.044 1380.23 82.044C1381.52 82.044 1382.56 81.648 1383.32 80.856C1384.12 80.064 1384.51 79.02 1384.51 77.724C1384.51 76.428 1384.1 75.396 1383.29 74.628C1382.5 73.836 1381.42 73.44 1380.05 73.44H1376.92V69.156L1381.06 65.232C1381.68 64.704 1382.27 64.248 1382.82 63.864C1383.11 63.672 1383.41 63.48 1383.72 63.288V63.072C1383.41 63.144 1383.06 63.192 1382.68 63.216C1382 63.336 1381.2 63.396 1380.26 63.396H1372.56V59.58H1387.9V63.9L1382.64 68.508C1382.45 68.676 1382.26 68.832 1382.06 68.976C1381.87 69.12 1381.69 69.252 1381.52 69.372C1381.33 69.492 1381.15 69.6 1380.98 69.696C1382.21 69.744 1383.31 69.972 1384.3 70.38C1385.3 70.788 1386.16 71.34 1386.85 72.036C1387.57 72.732 1388.11 73.56 1388.47 74.52C1388.86 75.48 1389.05 76.548 1389.05 77.724C1389.05 78.948 1388.83 80.064 1388.4 81.072C1387.99 82.08 1387.4 82.944 1386.64 83.664C1385.87 84.36 1384.94 84.9 1383.86 85.284C1382.78 85.668 1381.57 85.86 1380.23 85.86ZM1392.31 65.7H1397.21L1401.17 76.32C1401.33 76.776 1401.47 77.232 1401.56 77.688C1401.66 78.144 1401.73 78.576 1401.78 78.984C1401.83 79.416 1401.86 79.848 1401.89 80.28H1402.32C1402.34 79.872 1402.38 79.44 1402.43 78.984C1402.47 78.6 1402.53 78.18 1402.61 77.724C1402.7 77.244 1402.83 76.776 1403 76.32L1406.71 65.7H1411.5L1401.96 91.62H1397.21L1399.94 84.384L1392.31 65.7Z" />
    <g
       id="g32"
       clip-path="url(#clip1)">
      <path
         id="path30"
         fill="white"
         d="M1310.9 197.519C1309.06 198.329 1307.09 198.881 1305.02 199.133C1307.13 197.86 1308.76 195.854 1309.52 193.46C1307.54 194.617 1305.35 195.458 1303.01 195.927C1301.14 193.929 1298.48 192.679 1295.53 192.679C1289.87 192.679 1285.28 197.269 1285.28 202.923C1285.28 203.735 1285.37 204.517 1285.54 205.265C1277.02 204.862 1269.47 200.771 1264.42 194.585C1263.53 196.09 1263.03 197.837 1263.03 199.742C1263.03 203.304 1264.84 206.435 1267.59 208.275C1265.91 208.221 1264.32 207.758 1262.95 206.992V207.119C1262.95 212.087 1266.47 216.231 1271.17 217.175C1270.31 217.406 1269.4 217.531 1268.47 217.531C1267.81 217.531 1267.19 217.469 1266.56 217.352C1267.87 221.421 1271.65 224.387 1276.15 224.471C1272.65 227.219 1268.21 228.856 1263.44 228.856C1262.62 228.856 1261.81 228.808 1261 228.717C1265.56 231.621 1270.93 233.319 1276.74 233.319C1295.61 233.319 1305.91 217.702 1305.91 204.181C1305.91 203.746 1305.91 203.306 1305.88 202.869C1307.88 201.433 1309.63 199.619 1311 197.56L1310.9 197.519Z" />
    </g>
    <path
       id="path34"
       fill="white"
       d="M1328.99 231.62V227.444H1334.17C1335.32 227.444 1336.25 227.084 1336.94 226.364C1337.66 225.668 1338.02 224.744 1338.02 223.592V209.876H1330.07V205.7H1342.52V223.592C1342.52 224.792 1342.32 225.884 1341.91 226.868C1341.53 227.876 1340.98 228.728 1340.26 229.424C1339.56 230.12 1338.71 230.66 1337.7 231.044C1336.72 231.428 1335.61 231.62 1334.39 231.62H1328.99ZM1337.23 200.372C1337.23 199.652 1337.46 199.076 1337.92 198.644C1338.37 198.188 1338.98 197.96 1339.75 197.96H1340.47C1341.24 197.96 1341.86 198.188 1342.34 198.644C1342.82 199.076 1343.06 199.652 1343.06 200.372C1343.06 201.092 1342.82 201.668 1342.34 202.1C1341.86 202.508 1341.24 202.712 1340.47 202.712H1339.75C1338.98 202.712 1338.37 202.496 1337.92 202.064C1337.46 201.632 1337.23 201.068 1337.23 200.372ZM1350.21 199.58H1354.71V205.7C1354.71 206.06 1354.7 206.444 1354.68 206.852C1354.65 207.236 1354.62 207.596 1354.57 207.932C1354.55 208.268 1354.52 208.556 1354.5 208.796C1354.47 209.012 1354.46 209.12 1354.46 209.12H1354.79C1355.03 207.92 1355.6 206.996 1356.51 206.348C1357.43 205.676 1358.6 205.34 1360.04 205.34C1362.03 205.34 1363.62 205.988 1364.79 207.284C1365.97 208.58 1366.56 210.344 1366.56 212.576V225.5H1362.06V213.116C1362.06 211.892 1361.73 210.944 1361.09 210.272C1360.44 209.576 1359.55 209.228 1358.42 209.228C1357.27 209.228 1356.36 209.588 1355.69 210.308C1355.04 211.004 1354.71 211.964 1354.71 213.188V225.5H1350.21V199.58ZM1379.94 225.86C1378.71 225.86 1377.58 225.704 1376.55 225.392C1375.52 225.056 1374.62 224.588 1373.85 223.988C1373.08 223.364 1372.47 222.62 1372.02 221.756C1371.56 220.892 1371.28 219.92 1371.19 218.84H1375.69C1375.83 219.8 1376.29 220.58 1377.06 221.18C1377.85 221.756 1378.81 222.044 1379.94 222.044C1381.23 222.044 1382.26 221.648 1383.03 220.856C1383.82 220.064 1384.22 219.02 1384.22 217.724C1384.22 216.428 1383.81 215.396 1383 214.628C1382.2 213.836 1381.12 213.44 1379.76 213.44H1376.62V209.156L1380.76 205.232C1381.39 204.704 1381.98 204.248 1382.53 203.864C1382.82 203.672 1383.12 203.48 1383.43 203.288V203.072C1383.12 203.144 1382.77 203.192 1382.38 203.216C1381.71 203.336 1380.91 203.396 1379.97 203.396H1372.27V199.58H1387.6V203.9L1382.35 208.508C1382.16 208.676 1381.96 208.832 1381.77 208.976C1381.58 209.12 1381.4 209.252 1381.23 209.372C1381.04 209.492 1380.86 209.6 1380.69 209.696C1381.92 209.744 1383.02 209.972 1384 210.38C1385.01 210.788 1385.86 211.34 1386.56 212.036C1387.28 212.732 1387.82 213.56 1388.18 214.52C1388.56 215.48 1388.76 216.548 1388.76 217.724C1388.76 218.948 1388.54 220.064 1388.11 221.072C1387.7 222.08 1387.11 222.944 1386.34 223.664C1385.58 224.36 1384.65 224.9 1383.57 225.284C1382.49 225.668 1381.28 225.86 1379.94 225.86ZM1392.02 205.7H1396.91L1400.87 216.32C1401.04 216.776 1401.17 217.232 1401.27 217.688C1401.36 218.144 1401.44 218.576 1401.48 218.984C1401.53 219.416 1401.57 219.848 1401.59 220.28H1402.02C1402.05 219.872 1402.08 219.44 1402.13 218.984C1402.18 218.6 1402.24 218.18 1402.31 217.724C1402.41 217.244 1402.54 216.776 1402.71 216.32L1406.42 205.7H1411.2L1401.66 231.62H1396.91L1399.65 224.384L1392.02 205.7ZM1413.6 205.7H1418.5L1422.46 216.32C1422.63 216.776 1422.76 217.232 1422.85 217.688C1422.95 218.144 1423.02 218.576 1423.07 218.984C1423.12 219.416 1423.15 219.848 1423.18 220.28H1423.61C1423.63 219.872 1423.67 219.44 1423.72 218.984C1423.77 218.6 1423.83 218.18 1423.9 217.724C1423.99 217.244 1424.13 216.776 1424.29 216.32L1428 205.7H1432.79L1423.25 231.62H1418.5L1421.23 224.384L1413.6 205.7Z" />
    <g
       transform="matrix(1.34105,0,0,1.34105,548.8425,-974.56922)"
       id="g5612">
      <path
         class="bear__fur"
         d="m 243,894 c 0,61 -36,106 -94,106 -55,0 -92,-45 -92,-106 0,-61 38,-86 91,-86 53,0 95,25 95,86 z"
         id="path5562" />
      <path
         class="bear__muzzle"
         d="m 212,958 c 0,20 -29,39 -63,39 -35,0 -61,-19 -61,-39 0,-20 26,-33 61,-33 35,0 63,13 63,33 z"
         id="path5564" />
      <path
         class="bear__nose"
         d="m 181,932 c 0,7 -19,24 -30,24 -11,0 -32,-17 -32,-24 0,-8 20,-13 31,-13 12,0 31,5 31,13 z"
         id="path5566" />
      <ellipse
         class="bear__outer-ear"
         cx="68.300003"
         cy="827.70001"
         rx="23.799999"
         ry="23.1"
         id="ellipse5568" />
      <path
         class="bear__inner-ear"
         d="m 85,826 a 17,16 0 0 0 -17,-14 17,16 0 0 0 -16,16 17,16 0 0 0 16,16 17,16 0 0 0 1,0 l 3,-4 a 66,66 0 0 1 11,-12 z"
         id="path5570" />
      <ellipse
         class="bear__outer-ear"
         ry="23.1"
         rx="23.799999"
         cy="827.70001"
         cx="-231.2"
         transform="scale(-1,1)"
         id="ellipse5572" />
      <path
         class="bear__inner-ear"
         d="m 215,826 a 17,16 0 0 1 16,-14 17,16 0 0 1 17,16 17,16 0 0 1 -17,16 17,16 0 0 1 -1,0 l -2,-4 a 66,66 0 0 0 -11,-12 z"
         id="path5574" />
      <path
         class="bear__cap-strap"
         d="m 148,815 c -14,0 -26,1 -38,4 v 11 a 199,199 0 0 1 80,1 v -11 c -13,-3 -27,-5 -42,-5 z"
         id="path5576" />
      <path
         class="bear__small-cap-strap"
         d="m 165,816 a 16,8 0 0 1 5,5 16,8 0 0 1 -6,6 l 26,4 v -11 z"
         id="path5578" />
      <path
         class="bear__cap"
         d="m 148,789 c -43,0 -76,20 -83,64 12,-11 28,-19 45,-23 0,0 -2,-12 10,-16 15,-4 19,-4 28,-4 10,0 15,0 30,4 15,4 12,17 12,17 18,5 32,11 45,22 -8,-46 -43,-64 -87,-64 z"
         id="path5580" />
      <circle
         class="bear__eye"
         cx="97.199997"
         cy="894.09998"
         r="11.2"
         id="circle5582" />
      <circle
         class="bear__eye"
         cy="894.09998"
         cx="201.89999"
         r="11.2"
         id="circle5584" />
      <path
         style="fill:none;stroke:#e9afaf;stroke-width:3;stroke-linecap:round;stroke-linejoin:round"
         class="bear__eyebrows"
         d="m 97,864 a 21,21 0 0 1 -7,16 21,21 0 0 1 -16,5 m 130,-21 a 21,21 0 0 0 6,16 21,21 0 0 0 16,5"
         id="path5586" />
      <path
         class="shades-frame"
         d="m 77,855 c -6,0 -13,0 -23,2 l -14,3 2,15 7,2 c 3,5 1,10 2,18 3,28 12,34 26,35 8,1 23,3 33,-1 10,-4 19,-10 25,-18 6,-9 6,-18 10,-26 3,-5 8,-4 10,0 3,8 4,17 10,26 6,8 15,14 24,18 11,4 26,2 34,1 14,-1 23,-7 26,-35 1,-8 -2,-13 2,-18 l 7,-2 2,-15 -15,-3 c -15,-3 -23,-2 -34,-2 h -13 l -25,4 c -8,2 -15,7 -23,6 -8,0 -15,-5 -23,-6 l -25,-4 z"
         id="path5588" />
      <path
         style="fill:#333333"
         class="lens"
         d="m 85,860 c -10,1 -25,1 -28,13 -3,15 -3,32 6,45 7,11 23,9 35,9 19,-1 35,-16 40,-34 2,-8 4,-14 1,-19 -6,-10 -20,-12 -31,-13 z"
         id="path5590" />
      <path
         class="shades-dot"
         d="m 56,864 a 4,2 0 0 1 -4,2 4,2 0 0 1 -4,-2 4,2 0 0 1 4,-1 4,2 0 0 1 4,1"
         id="path5592" />
      <path
         style="fill:#333333"
         class="lens"
         d="m 215,860 c 10,1 24,1 28,13 3,15 3,32 -6,45 -7,11 -23,9 -35,9 -19,-1 -35,-16 -40,-34 -2,-8 -4,-14 -1,-19 6,-10 20,-12 31,-13 z"
         id="path5594" />
      <path
         class="shades-dot"
         d="m 244,864 a 4,2 0 0 0 4,2 4,2 0 0 0 4,-2 4,2 0 0 0 -4,-1 4,2 0 0 0 -4,1"
         id="path5596" />
      <g
         clip-path="url(#spec-left)"
         id="g5602">
        <use
           height="100%"
           width="100%"
           y="0"
           x="0"
           xlink:href="#code-block"
           id="use5598" />
        <use
           height="100%"
           width="100%"
           x="0"
           xlink:href="#code-block"
           y="283.5"
           id="use5600" />
      </g>
      <g
         clip-path="url(#spec-right)"
         id="g5608">
        <use
           height="100%"
           width="100%"
           y="0"
           x="0"
           xlink:href="#code-block"
           transform="translate(104)"
           id="use5604" />
        <use
           height="100%"
           width="100%"
           x="0"
           xlink:href="#code-block"
           transform="translate(104)"
           y="283.5"
           id="use5606" />
      </g>
      <path
         class="lens__shine"
         d="m 101,861 -19,66 h 17 l 18,-65 z m -12,-1 h -4 l -3,1 -18,59 6,5 z"
         id="path5610" />
    </g>
  </g>
  <defs
     id="defs48">
    <pattern
       height="1"
       width="1"
       patternContentUnits="objectBoundingBox"
       id="pattern0">
      <use
         id="use38"
         transform="scale(0.005)"
         xlink:href="#image0" />
    </pattern>
    <clipPath
       id="clip0">
      <rect
         id="rect41"
         fill="white"
         height="500"
         width="1500" />
    </clipPath>
    <clipPath
       id="clip1">
      <rect
         id="rect44"
         transform="translate(1261 188)"
         fill="white"
         height="50"
         width="50" />
    </clipPath>
    <style
       type="text/css"
       id="style5503">
         svg {
  --fur: #662900;
  --ear: #e4b89b;
  --cap-strap--large: #f00;
  --cap-strap--small: #900;
  --cap: #0d0d0d;
  --dots: rgba(242,242,242,0.6);
  --frame: #000;
  --shine: rgba(242,242,242,0.35);
  --lens: #595959;
  --code-one: rgba(128,230,25,0.5);
  --code-two: rgba(229,230,25,0.5);
  --code-three: rgba(230,25,128,0.5);
  --code-four: rgba(25,195,230,0.5);
}
.code-block {
  -webkit-animation: read 1s infinite linear;
          animation: read 1s infinite linear;
}
.code-block rect {
  fill: var(--code-one);
}
.code-block rect:nth-of-type(5) {
  fill: var(--code-four);
}
.code-block rect:nth-of-type(8),
.code-block rect:nth-of-type(9) {
  fill: var(--code-two);
}
.code-block rect:nth-of-type(12) {
  fill: var(--code-three);
}
.bear__fur,
.bear__outer-ear {
  fill: var(--fur);
}
.bear__inner-ear,
.bear__muzzle {
  fill: var(--ear);
}
.bear__cap-strap {
  fill: var(--cap-strap--large);
}
.bear__small-cap-strap {
  fill: var(--cap-strap--small);
}
.bear__cap {
  fill: var(--cap);
}
.lens {
  fill: var(--lens);
}
.lens__shine {
  fill: var(--shine);
}
.shades-dot {
  fill: var(--dots);
}
.bear__nose,
.shades-frame {
  fill: var(--frame);
}
@-webkit-keyframes read {
  to {
    -webkit-transform: translate(0, -283.5px);
            transform: translate(0, -283.5px);
  }
}
@keyframes read {
  to {
    -webkit-transform: translate(0, -283.5px);
            transform: translate(0, -283.5px);
  }
}
   </style>
    <g
       class="code-block"
       id="code-block">
      <rect
         ry="0"
         y="862"
         x="60"
         height="7.5"
         width="74"
         id="rect5505" />
      <rect
         ry="0"
         y="874"
         x="96"
         height="7.5"
         width="28"
         id="rect5507" />
      <rect
         width="54"
         height="7.5"
         x="60"
         y="886"
         ry="0"
         id="rect5509" />
      <rect
         ry="0"
         y="897"
         x="60"
         height="7.5"
         width="74"
         id="rect5511" />
      <rect
         width="56"
         height="7.5"
         x="78"
         y="909"
         ry="0"
         id="rect5513" />
      <rect
         ry="0"
         y="921"
         x="83"
         height="7.5"
         width="51"
         id="rect5515" />
      <rect
         width="51"
         height="7.5"
         x="73"
         y="932"
         ry="0"
         id="rect5517" />
      <rect
         ry="0"
         y="944"
         x="72"
         height="7.5"
         width="62"
         id="rect5519" />
      <rect
         width="74"
         height="7.5"
         x="60"
         y="956"
         ry="0"
         id="rect5521" />
      <rect
         ry="0"
         y="967"
         x="50"
         height="7.5"
         width="84"
         id="rect5523" />
      <rect
         width="64"
         height="7.5"
         x="60"
         y="979"
         ry="0"
         id="rect5525" />
      <rect
         ry="0"
         y="991"
         x="60"
         height="7.5"
         width="74"
         id="rect5527" />
      <rect
         width="41"
         height="7.5"
         x="93"
         y="1003"
         ry="0"
         id="rect5529" />
      <rect
         ry="0"
         y="1014"
         x="66"
         height="7.5"
         width="58"
         id="rect5531" />
      <rect
         width="58"
         height="7.5"
         x="56"
         y="1026"
         ry="0"
         id="rect5533" />
      <rect
         ry="0"
         y="1038"
         x="50"
         height="7.5"
         width="74"
         id="rect5535" />
      <rect
         width="46"
         height="7.5"
         x="88"
         y="1049"
         ry="0"
         id="rect5537" />
      <rect
         ry="0"
         y="1061"
         x="105"
         height="7.5"
         width="19"
         id="rect5539" />
      <rect
         width="38"
         height="7.5"
         x="96"
         y="1073"
         ry="0"
         id="rect5541" />
      <rect
         ry="0"
         y="1084"
         x="73"
         height="7.5"
         width="51"
         id="rect5543" />
      <rect
         ry="0"
         y="1096"
         x="88"
         height="7.5"
         width="26"
         id="rect5545" />
      <rect
         width="56"
         height="7.5"
         x="68"
         y="1108"
         ry="0"
         id="rect5547" />
      <rect
         ry="0"
         y="1120"
         x="100"
         height="7.5"
         width="24"
         id="rect5549" />
      <rect
         width="74"
         height="7.5"
         x="50"
         y="1131"
         ry="0"
         id="rect5551" />
    </g>
    <clipPath
       id="spec-left">
      <path
         d="M85 860c-10 1-25 1-28 13-3 15-3 32 6 45 7 11 23 9 35 9 19-1 35-16 40-34 2-8 4-14 1-19-6-10-20-12-31-13l-23-1z"
         fill="#333"
         id="path5554" />
    </clipPath>
    <clipPath
       id="spec-right">
      <path
         d="M215 860c10 1 24 1 28 13 3 15 3 32-6 45-7 11-23 9-35 9-19-1-35-16-40-34-2-8-4-14-1-19 6-10 20-12 31-13l23-1z"
         fill="#333"
         id="path5557" />
    </clipPath>
  </defs>
</svg>
